{
  "source": "C:\\Users\\Peter\\Desktop\\stuff\\MIUN\\quantitative_research\\video_compression\\videos\\BVI-HD\\ParkPlay_1920x1080_50fps.mp4",
  "output": "C:\\Users\\Peter\\Desktop\\stuff\\MIUN\\quantitative_research\\video_compression\\compressed_videos\\BVI-HD\\av1\\12\\ParkPlay_1920x1080_50fps_av1.mkv",
  "codec": "av1",
  "ok": "Input #0, mov,mp4,m4a,3gp,3g2,mj2, from 'C:\\Users\\Peter\\Desktop\\stuff\\MIUN\\quantitative_research\\video_compression\\videos\\BVI-HD\\ParkPlay_1920x1080_50fps.mp4':\n  Metadata:\n    major_brand     : isom\n    minor_version   : 512\n    compatible_brands: isomiso2avc1mp41\n    encoder         : Lavf54.28.101\n  Duration: 00:00:05.00, start: 0.000000, bitrate: 620563 kb/s\n  Stream #0:0[0x1](und): Video: h264 (High 4:4:4 Predictive) (avc1 / 0x31637661), yuv420p(progressive), 1920x1080, 620558 kb/s, 50 fps, 50 tbr, 50 tbn (default)\n    Metadata:\n      handler_name    : VideoHandler\n      vendor_id       : [0][0][0][0]\n[out#0/matroska @ 000001a407270d40] Codec AVOption b:a (set bitrate (in bits/s)) has not been used for any stream. The most likely reason is either wrong type (e.g. a video option with no video streams) or that it is a private option of some decoder which was not actually used for any stream.\nStream mapping:\n  Stream #0:0 -> #0:0 (h264 (native) -> av1 (libsvtav1))\nPress [q] to stop, [?] for help\nSvt[info]: -------------------------------------------\nSvt[info]: SVT [version]:\tSVT-AV1 Encoder Lib v3.1.0-19-g6ecfe8ec\nSvt[info]: SVT [build]  :\tGCC 15.2.0\t 64 bit\nSvt[info]: LIB Build date: Aug 17 2025 11:37:13\nSvt[info]: -------------------------------------------\nSvt[info]: Level of Parallelism: 5\nSvt[info]: Number of PPCS 93\nSvt[info]: [asm level on system : up to avx2]\nSvt[info]: [asm level selected : up to avx2]\nSvt[info]: -------------------------------------------\nSvt[info]: SVT [config]: main profile\ttier (auto)\tlevel (auto)\nSvt[info]: SVT [config]: width / height / fps numerator / fps denominator \t\t: 1920 / 1080 / 50 / 1\nSvt[info]: SVT [config]: bit-depth / color format \t\t\t\t\t: 8 / YUV420\nSvt[info]: SVT [config]: preset / tune / pred struct \t\t\t\t\t: 4 / PSNR / random access\nSvt[info]: SVT [config]: gop size / mini-gop size / key-frame type \t\t\t: 321 / 16 / key frame\nSvt[info]: SVT [config]: BRC mode / target bitrate (kbps)\t\t\t\t: VBR / 12000 \nSvt[info]: SVT [config]: AQ mode / Variance Boost \t\t\t\t\t: 2 / 0\nSvt[info]: SVT [config]: sharpness / luminance-based QP bias \t\t\t\t: 0 / 0\nSvt[info]: SVT [config]: QP scale compress strength \t\t\t\t\t: 0\nSvt[info]: -------------------------------------------\nOutput #0, matroska, to 'C:\\Users\\Peter\\Desktop\\stuff\\MIUN\\quantitative_research\\video_compression\\compressed_videos\\BVI-HD\\av1\\12\\ParkPlay_1920x1080_50fps_av1.mkv':\n  Metadata:\n    major_brand     : isom\n    minor_version   : 512\n    compatible_brands: isomiso2avc1mp41\n    encoder         : Lavf62.3.100\n  Stream #0:0(und): Video: av1 (AV01 / 0x31305641), yuv420p(tv, progressive), 1920x1080, q=2-31, 12000 kb/s, 50 fps, 1k tbn (default)\n    Metadata:\n      encoder         : Lavc62.11.100 libsvtav1\n      handler_name    : VideoHandler\n      vendor_id       : [0][0][0][0]\n    Side data:\n      cpb: bitrate max/min/avg: 0/0/12000000 buffer size: 12000000 vbv_delay: N/A\nframe=    0 fps=0.0 q=0.0 size=       0KiB time=N/A bitrate=N/A speed=N/A elapsed=0:00:01.54    \nframe=    0 fps=0.0 q=0.0 size=       0KiB time=N/A bitrate=N/A speed=N/A elapsed=0:00:02.06    \nframe=    0 fps=0.0 q=0.0 size=       0KiB time=N/A bitrate=N/A speed=N/A elapsed=0:00:02.60    \nframe=    0 fps=0.0 q=0.0 size=       0KiB time=N/A bitrate=N/A speed=N/A elapsed=0:00:03.12    \nframe=    0 fps=0.0 q=0.0 size=       0KiB time=N/A bitrate=N/A speed=N/A elapsed=0:00:03.63    \nframe=    0 fps=0.0 q=0.0 size=       0KiB time=N/A bitrate=N/A speed=N/A elapsed=0:00:04.20    \nframe=    0 fps=0.0 q=0.0 size=       0KiB time=N/A bitrate=N/A speed=N/A elapsed=0:00:04.75    \nframe=    0 fps=0.0 q=0.0 size=       0KiB time=N/A bitrate=N/A speed=N/A elapsed=0:00:05.29    \nframe=    0 fps=0.0 q=0.0 size=       0KiB time=N/A bitrate=N/A speed=N/A elapsed=0:00:05.81    \nframe=    1 fps=0.2 q=18.0 size=       1KiB time=00:00:00.00 bitrate=N/A speed=   0x elapsed=0:00:06.32    \nframe=    1 fps=0.1 q=18.0 size=       1KiB time=00:00:00.00 bitrate=N/A speed=   0x elapsed=0:00:06.84    \nframe=    1 fps=0.1 q=18.0 size=       1KiB time=00:00:00.00 bitrate=N/A speed=   0x elapsed=0:00:07.37    \nframe=    6 fps=0.8 q=31.0 size=       1KiB time=00:00:00.10 bitrate=  57.0kbits/s speed=0.0127x elapsed=0:00:07.90    \nframe=    8 fps=1.0 q=31.0 size=       1KiB time=00:00:00.14 bitrate=  40.7kbits/s speed=0.0166x elapsed=0:00:08.42    \nframe=   12 fps=1.3 q=30.0 size=       1KiB time=00:00:00.22 bitrate=  25.9kbits/s speed=0.0244x elapsed=0:00:09.00    \nframe=   16 fps=1.7 q=30.0 size=       1KiB time=00:00:00.28 bitrate=  20.4kbits/s speed=0.0293x elapsed=0:00:09.56    \nframe=   20 fps=2.0 q=31.0 size=       1KiB time=00:00:00.38 bitrate=  15.0kbits/s speed=0.0376x elapsed=0:00:10.09    \nframe=   23 fps=2.2 q=27.0 size=       1KiB time=00:00:00.44 bitrate=  13.0kbits/s speed=0.0415x elapsed=0:00:10.61    \nframe=   27 fps=2.4 q=30.0 size=       1KiB time=00:00:00.52 bitrate=  11.0kbits/s speed=0.0465x elapsed=0:00:11.19    \nframe=   31 fps=2.6 q=30.0 size=       1KiB time=00:00:00.60 bitrate=   9.5kbits/s speed=0.0512x elapsed=0:00:11.72    \nframe=   35 fps=2.9 q=31.0 size=       1KiB time=00:00:00.68 bitrate=   8.4kbits/s speed=0.0554x elapsed=0:00:12.27    \nframe=   38 fps=3.0 q=30.0 size=       1KiB time=00:00:00.74 bitrate=   7.7kbits/s speed=0.0578x elapsed=0:00:12.79    \nframe=   42 fps=3.2 q=32.0 size=       1KiB time=00:00:00.82 bitrate=   7.0kbits/s speed=0.0616x elapsed=0:00:13.32    \nframe=   44 fps=3.2 q=33.0 size=       1KiB time=00:00:00.86 bitrate=   6.6kbits/s speed=0.0621x elapsed=0:00:13.85    \nframe=   50 fps=3.5 q=33.0 size=       1KiB time=00:00:00.98 bitrate=   5.8kbits/s speed=0.0681x elapsed=0:00:14.39    \nframe=   54 fps=3.6 q=33.0 size=       1KiB time=00:00:01.06 bitrate=   5.4kbits/s speed=0.071x elapsed=0:00:14.92    \nframe=   57 fps=3.7 q=26.0 size=       1KiB time=00:00:01.12 bitrate=   5.1kbits/s speed=0.0725x elapsed=0:00:15.44    \nframe=   61 fps=3.8 q=27.0 size=       1KiB time=00:00:01.18 bitrate=   4.8kbits/s speed=0.0738x elapsed=0:00:15.98    \nframe=   67 fps=4.0 q=33.0 size=       1KiB time=00:00:01.32 bitrate=   4.3kbits/s speed=0.0797x elapsed=0:00:16.55    \nframe=   70 fps=4.1 q=34.0 size=       1KiB time=00:00:01.38 bitrate=   4.1kbits/s speed=0.0807x elapsed=0:00:17.09    \nframe=   74 fps=4.2 q=34.0 size=       1KiB time=00:00:01.46 bitrate=   3.9kbits/s speed=0.0829x elapsed=0:00:17.61    \nframe=   77 fps=4.2 q=27.0 size=       1KiB time=00:00:01.52 bitrate=   3.8kbits/s speed=0.0838x elapsed=0:00:18.13    \nframe=   83 fps=4.4 q=33.0 size=       1KiB time=00:00:01.64 bitrate=   3.5kbits/s speed=0.0879x elapsed=0:00:18.65    \nframe=   87 fps=4.5 q=30.0 size=       1KiB time=00:00:01.72 bitrate=   3.3kbits/s speed=0.0897x elapsed=0:00:19.16    \nframe=   91 fps=4.6 q=32.0 size=       1KiB time=00:00:01.80 bitrate=   3.2kbits/s speed=0.0911x elapsed=0:00:19.75    \nframe=   95 fps=4.7 q=32.0 size=       1KiB time=00:00:01.88 bitrate=   3.0kbits/s speed=0.0925x elapsed=0:00:20.31    \nframe=  101 fps=4.8 q=32.0 size=       1KiB time=00:00:02.00 bitrate=   2.9kbits/s speed=0.096x elapsed=0:00:20.83    \nframe=  103 fps=4.8 q=34.0 size=       1KiB time=00:00:02.04 bitrate=   2.8kbits/s speed=0.0956x elapsed=0:00:21.33    \nframe=  107 fps=4.9 q=32.0 size=       1KiB time=00:00:02.12 bitrate=   2.7kbits/s speed=0.097x elapsed=0:00:21.85    \nframe=  111 fps=5.0 q=32.0 size=       1KiB time=00:00:02.20 bitrate=   2.6kbits/s speed=0.0983x elapsed=0:00:22.37    \nframe=  117 fps=5.1 q=32.0 size=       1KiB time=00:00:02.32 bitrate=   2.5kbits/s speed=0.101x elapsed=0:00:22.90    \nframe=  120 fps=5.1 q=35.0 size=       1KiB time=00:00:02.36 bitrate=   2.4kbits/s speed=0.101x elapsed=0:00:23.44    \nframe=  124 fps=5.2 q=35.0 size=       1KiB time=00:00:02.46 bitrate=   2.3kbits/s speed=0.102x elapsed=0:00:24.01    \nframe=  131 fps=5.3 q=34.0 size=       1KiB time=00:00:02.60 bitrate=   2.2kbits/s speed=0.106x elapsed=0:00:24.53    \nframe=  134 fps=5.3 q=35.0 size=       1KiB time=00:00:02.66 bitrate=   2.1kbits/s speed=0.106x elapsed=0:00:25.05    \nframe=  138 fps=5.4 q=35.0 size=       1KiB time=00:00:02.74 bitrate=   2.1kbits/s speed=0.107x elapsed=0:00:25.56    \nframe=  141 fps=5.4 q=30.0 size=       1KiB time=00:00:02.80 bitrate=   2.0kbits/s speed=0.107x elapsed=0:00:26.08    \nframe=  147 fps=5.5 q=35.0 size=       1KiB time=00:00:02.92 bitrate=   2.0kbits/s speed=0.11x elapsed=0:00:26.63    \nframe=  151 fps=5.6 q=31.0 size=       1KiB time=00:00:03.00 bitrate=   1.9kbits/s speed=0.111x elapsed=0:00:27.14    \nframe=  157 fps=5.7 q=30.0 size=    5120KiB time=00:00:03.12 bitrate=13443.3kbits/s speed=0.113x elapsed=0:00:27.69    \nframe=  161 fps=5.7 q=24.0 size=    5120KiB time=00:00:03.20 bitrate=13107.2kbits/s speed=0.113x elapsed=0:00:28.21    \nframe=  167 fps=5.8 q=35.0 size=    5120KiB time=00:00:03.32 bitrate=12633.4kbits/s speed=0.116x elapsed=0:00:28.73    \nframe=  169 fps=5.8 q=30.0 size=    5120KiB time=00:00:03.36 bitrate=12483.0kbits/s speed=0.115x elapsed=0:00:29.25    \nframe=  175 fps=5.9 q=33.0 size=    5120KiB time=00:00:03.48 bitrate=12052.6kbits/s speed=0.117x elapsed=0:00:29.79    \nframe=  181 fps=6.0 q=33.0 size=    5120KiB time=00:00:03.60 bitrate=11650.8kbits/s speed=0.119x elapsed=0:00:30.31    \nframe=  185 fps=6.0 q=30.0 size=    5120KiB time=00:00:03.68 bitrate=11397.6kbits/s speed=0.119x elapsed=0:00:30.82    \nframe=  187 fps=6.0 q=33.0 size=    5120KiB time=00:00:03.72 bitrate=11275.0kbits/s speed=0.119x elapsed=0:00:31.35    \nframe=  193 fps=6.1 q=24.0 size=    5120KiB time=00:00:03.84 bitrate=10922.7kbits/s speed=0.12x elapsed=0:00:31.90    \nframe=  199 fps=6.1 q=35.0 size=    5120KiB time=00:00:03.96 bitrate=10591.7kbits/s speed=0.122x elapsed=0:00:32.41    \nframe=  203 fps=6.2 q=34.0 size=    5120KiB time=00:00:04.04 bitrate=10381.9kbits/s speed=0.123x elapsed=0:00:32.96    \nframe=  209 fps=6.2 q=23.0 size=    5120KiB time=00:00:04.16 bitrate=10082.5kbits/s speed=0.124x elapsed=0:00:33.49    \nframe=  215 fps=6.3 q=35.0 size=    5120KiB time=00:00:04.28 bitrate=9799.8kbits/s speed=0.126x elapsed=0:00:34.03    \nframe=  217 fps=6.3 q=30.0 size=    5120KiB time=00:00:04.32 bitrate=9709.0kbits/s speed=0.125x elapsed=0:00:34.56    \nframe=  221 fps=6.3 q=31.0 size=    5120KiB time=00:00:04.40 bitrate=9532.5kbits/s speed=0.125x elapsed=0:00:35.07    \nframe=  229 fps=6.4 q=37.0 size=    5120KiB time=00:00:04.56 bitrate=9198.0kbits/s speed=0.128x elapsed=0:00:35.59    \nframe=  233 fps=6.4 q=31.0 size=    5120KiB time=00:00:04.64 bitrate=9039.4kbits/s speed=0.128x elapsed=0:00:36.13    \nframe=  237 fps=6.5 q=37.0 size=    5120KiB time=00:00:04.72 bitrate=8886.2kbits/s speed=0.129x elapsed=0:00:36.65    \n[out#0/matroska @ 000001a407270d40] video:7771KiB audio:0KiB subtitle:0KiB other streams:0KiB global headers:0KiB muxing overhead: 0.024831%\nframe=  250 fps=6.8 q=37.0 Lsize=    7773KiB time=00:00:04.98 bitrate=12786.7kbits/s speed=0.135x elapsed=0:00:36.95    \n",
  "seconds": 37.578063011169434,
  "probe_out": {}
}